P3
# code
10 10
255
234
234
234
80
80
80
78
30
80
80
45
0
80
30
0
45
78
0
78
30
0
178
30
45
80
30
0
80
30
0
80
178
234
178
30
0
80
78
234
178
30
0
80
78
0
45
30
234
80
30
0
178
30
0
234
45
0
80
178
0
80
78
0
78
78
78
80
178
45
78
30
78
45
234
178
234
234
234
80
80
80
78
30
80
80
45
0
80
30
0
45
78
0
78
30
0
178
30
45
80
30
0
80
30
0
80
178
234
178
30
0
80
78
234
178
30
0
80
78
0
45
30
234
80
30
0
178
30
0
234
45
0
80
178
0
80
78
0
78
78
78
80
178
45
78
30
78
45
234
178
234
234
234
80
80
80
78
30
80
80
45
0
80
30
0
45
78
0
78
30
0
178
30
45
80
30
0
80
30
0
80
178
234
178
30
0
80
78
234
178
30
0
80
78
0
45
30
234
80
30
0
178
30
0
234
45
0
80
178
0
80
78
0
78
78
78
80
178
45
78
30
78
45
234
178
234
234
234
80
80
80
78
30
80
80
45
0
80
30
0
45
78
0
78
30
0
178
30
45
80
30
0
80
30
0
80
178
234
178
30
0
80
78
234
178
30
0
80
78
0
45
30
234
80
30
0
178
30
0
234
45
0
80
178
0
80
78
0
78
78
78
80
178
45
78
30
78
45
234
178
