P3
# saved image res/10x10Luma.ppm
10 10
255
234
234
234
79
79
79
43
43
43
49
49
49
38
38
38
65
65
65
38
38
38
62
62
62
38
38
38
38
38
38
161
161
161
59
59
59
89
89
89
59
59
59
72
72
72
47
47
47
38
38
38
59
59
59
81
81
81
144
144
144
72
72
72
78
78
78
147
147
147
43
43
43
189
189
189
234
234
234
79
79
79
43
43
43
49
49
49
38
38
38
65
65
65
38
38
38
62
62
62
38
38
38
38
38
38
161
161
161
59
59
59
89
89
89
59
59
59
72
72
72
47
47
47
38
38
38
59
59
59
81
81
81
144
144
144
72
72
72
78
78
78
147
147
147
43
43
43
189
189
189
234
234
234
79
79
79
43
43
43
49
49
49
38
38
38
65
65
65
38
38
38
62
62
62
38
38
38
38
38
38
161
161
161
59
59
59
89
89
89
59
59
59
72
72
72
47
47
47
38
38
38
59
59
59
81
81
81
144
144
144
72
72
72
78
78
78
147
147
147
43
43
43
189
189
189
234
234
234
79
79
79
43
43
43
49
49
49
38
38
38
65
65
65
38
38
38
62
62
62
38
38
38
38
38
38
161
161
161
59
59
59
89
89
89
59
59
59
72
72
72
47
47
47
38
38
38
59
59
59
81
81
81
144
144
144
72
72
72
78
78
78
147
147
147
43
43
43
189
189
189
