P3
# saved image res/10x10Sharpen.ppm
10 10
255
0
0
0
0
0
0
0
0
0
0
0
0
0
0
0
0
0
0
0
0
0
0
0
0
0
0
0
0
0
0
0
0
0
0
0
0
0
0
0
0
0
0
0
0
0
0
0
0
0
0
0
0
0
0
0
0
0
0
0
0
0
0
0
0
0
0
111
87
22
63
49
83
46
255
255
193
255
255
124
91
255
171
0
16
0
0
0
0
0
0
0
0
0
0
0
0
210
0
0
127
74
0
107
170
81
87
255
255
172
141
177
77
37
207
0
0
0
0
0
0
0
0
0
0
0
0
209
0
0
253
0
0
52
155
0
27
85
0
63
104
106
111
87
22
0
0
0
0
0
0
0
0
0
0
0
0
171
0
16
134
0
0
75
2
0
0
44
0
50
0
0
210
0
0
0
0
0
0
0
0
0
0
0
0
0
0
77
37
207
101
59
36
62
117
79
1
94
255
108
1
62
209
0
0
0
0
0
0
0
0
0
0
0
0
0
0
111
87
22
63
49
83
46
255
255
193
255
255
124
91
255
171
0
16
0
0
0
0
0
0
0
0
0
0
0
0
0
0
0
0
0
0
0
0
0
0
0
0
0
0
0
0
0
0
0
0
0
0
0
0
0
0
0
0
0
0
0
0
0
0
0
0
0
0
0
0
0
0
0
0
0
0
0
0
0
0
0
0
0
0
