P3
# saved image archive/10.ppm
10 10
255
255
255
255
130
130
130
128
80
130
130
95
50
130
80
50
95
128
50
128
80
50
228
80
95
130
80
50
130
80
50
130
228
255
228
80
50
130
128
255
228
80
50
130
128
50
95
80
255
130
80
50
228
80
50
255
95
50
130
228
50
130
128
50
128
128
128
130
228
95
128
80
128
95
255
228
255
255
255
130
130
130
128
80
130
130
95
50
130
80
50
95
128
50
128
80
50
228
80
95
130
80
50
130
80
50
130
228
255
228
80
50
130
128
255
228
80
50
130
128
50
95
80
255
130
80
50
228
80
50
255
95
50
130
228
50
130
128
50
128
128
128
130
228
95
128
80
128
95
255
228
255
255
255
130
130
130
128
80
130
130
95
50
130
80
50
95
128
50
128
80
50
228
80
95
130
80
50
130
80
50
130
228
255
228
80
50
130
128
255
228
80
50
130
128
50
95
80
255
130
80
50
228
80
50
255
95
50
130
228
50
130
128
50
128
128
128
130
228
95
128
80
128
95
255
228
255
255
255
130
130
130
128
80
130
130
95
50
130
80
50
95
128
50
128
80
50
228
80
95
130
80
50
130
80
50
130
228
255
228
80
50
130
128
255
228
80
50
130
128
50
95
80
255
130
80
50
228
80
50
255
95
50
130
228
50
130
128
50
128
128
128
130
228
95
128
80
128
95
255
228
