P3
# saved image res/10b.ppm
10 10
255
0
0
0
0
0
0
0
0
0
0
0
0
0
0
0
0
0
0
0
0
0
0
0
0
0
0
0
0
0
0
0
0
0
111
87
98
101
62
86
99
60
56
87
78
69
81
78
103
97
46
60
133
30
20
135
48
7
0
0
0
0
0
0
93
76
54
101
72
63
92
74
62
92
116
110
114
129
148
113
75
101
112
39
59
116
45
24
0
0
0
0
0
0
88
48
30
122
46
24
113
58
27
92
104
69
107
122
107
111
87
98
101
62
86
99
60
56
0
0
0
0
0
0
97
46
60
133
30
20
135
48
7
96
82
14
79
85
38
93
76
54
101
72
63
92
74
62
0
0
0
0
0
0
113
75
101
112
39
59
116
45
24
87
60
14
64
57
33
88
48
30
122
46
24
113
58
27
0
0
0
0
0
0
111
87
98
101
62
86
99
60
56
87
78
69
81
78
103
97
46
60
133
30
20
135
48
7
0
0
0
0
0
0
93
76
54
101
72
63
92
74
62
92
116
110
114
129
148
113
75
101
112
39
59
116
45
24
0
0
0
0
0
0
88
48
30
122
46
24
113
58
27
92
104
69
107
122
107
111
87
98
101
62
86
99
60
56
0
0
0
0
0
0
0
0
0
0
0
0
0
0
0
0
0
0
0
0
0
0
0
0
0
0
0
0
0
0
0
0
0
