P3
# saved image res/10sharp.ppm
10 10
255
0
0
0
0
0
0
0
0
0
0
0
0
0
0
0
0
0
0
0
0
0
0
0
0
0
0
0
0
0
0
0
0
0
0
0
0
0
0
0
0
0
0
0
0
0
0
0
0
0
0
0
0
0
0
0
0
0
0
0
0
0
0
0
0
0
0
210
175
87
170
124
142
151
255
255
255
255
255
220
165
255
255
27
88
0
0
0
187
82
0
0
0
0
0
0
0
255
52
15
222
147
15
206
227
132
190
255
255
255
203
211
182
120
255
0
0
0
128
132
40
0
0
0
0
0
0
255
16
0
255
58
0
160
230
0
140
159
2
169
173
161
210
175
87
0
0
0
100
243
174
0
0
0
0
0
0
255
27
88
229
83
2
178
87
0
70
127
4
158
77
31
255
52
15
0
0
0
145
127
39
0
0
0
0
0
0
182
120
255
213
133
94
167
185
130
110
162
255
207
82
115
255
16
0
0
0
0
157
182
0
0
0
0
0
0
0
210
175
87
170
124
142
151
255
255
255
255
255
220
165
255
255
27
88
0
0
0
187
82
0
0
0
0
0
0
0
0
0
0
0
0
0
0
0
0
0
0
0
0
0
0
0
0
0
0
0
0
0
0
0
0
0
0
0
0
0
255
21
0
255
59
0
149
213
15
144
144
20
145
158
165
175
182
91
0
0
0
104
248
177
