P3
# code
2 2
255
254
254
254
100
100
100
0
50
100
100
50
0
