P3
# code
2 2
255
255
255
255
110
110
110
10
60
110
110
60
10
