P3
# code
2 2
255
234
234
234
80
80
80
0
30
80
80
30
0
