P3

# saved image res/2x2Flipped.ppm

2 2

255
255
0
0
0
255
0
255
255
255
0
0
255
