P3
# code
2 2
255
254
254
254
100
100
100
42
42
42
57
57
57
