P3
# saved image res/5b.ppm
5 5
255
0
0
0
0
0
0
0
0
0
0
0
0
0
0
0
0
0
0
106
62
62
114
34
55
103
31
24
0
0
0
0
0
0
109
51
74
136
36
63
135
47
31
0
0
0
0
0
0
98
55
68
133
53
42
138
75
36
0
0
0
0
0
0
0
0
0
0
0
0
0
0
0
0
0
0
