P3
# saved image res/5flip.ppm
5 5
255
80
30
0
80
45
0
78
30
80
80
80
80
234
234
234
80
30
0
80
30
0
178
30
45
78
30
0
45
78
0
80
78
0
178
30
0
80
78
234
178
30
0
80
178
234
80
178
0
234
45
0
178
30
0
80
30
0
45
30
234
45
234
178
78
30
78
80
178
45
78
78
78
80
78
0
