P3
# saved image res/altered.ppm
2 2
255
155
155
155
0
0
155
155
0
0
0
155
0
