P3
# saved image res/bc.ppm
5 5
255
234
234
234
80
80
80
80
80
80
0
0
0
0
0
0
0
0
0
0
0
0
45
45
45
0
0
0
0
0
0
234
234
234
0
0
0
234
234
234
0
0
0
0
0
0
234
234
234
0
0
0
0
0
0
0
0
0
0
0
0
0
0
0
78
78
78
45
45
45
78
78
78
178
178
178
