P3
# saved image res/blue-comp.ppm
3 3
255
150
150
150
86
86
86
152
152
152
50
50
50
50
50
50
100
100
100
255
255
255
255
255
255
50
50
50
