P3
# saved image res/brighter.ppm
3 3
255
86
50
150
150
50
86
73
106
152
50
255
50
50
50
50
100
100
100
255
255
255
50
50
255
255
50
50
