P3
# saved image res/gc.ppm
5 5
255
234
234
234
80
80
80
30
30
30
45
45
45
30
30
30
78
78
78
30
30
30
30
30
30
30
30
30
30
30
30
178
178
178
30
30
30
78
78
78
30
30
30
78
78
78
30
30
30
30
30
30
30
30
30
45
45
45
178
178
178
78
78
78
78
78
78
178
178
178
30
30
30
234
234
234
