P3
# saved image res/havemercy.ppm
5 5
255
255
255
255
108
99
74
68
64
47
66
62
45
54
52
37
77
71
53
53
51
37
101
98
70
54
52
37
54
52
37
212
192
147
93
90
64
135
124
94
93
90
64
91
84
63
84
77
58
54
52
37
93
90
64
126
122
87
168
153
116
91
84
63
105
97
73
176
161
122
68
64
47
231
208
160
