P3
# saved image res/rc.ppm
5 5
255
234
234
234
80
80
80
78
78
78
80
80
80
80
80
80
45
45
45
78
78
78
178
178
178
80
80
80
80
80
80
80
80
80
178
178
178
80
80
80
178
178
178
80
80
80
45
45
45
80
80
80
178
178
178
234
234
234
80
80
80
80
80
80
78
78
78
80
80
80
78
78
78
45
45
45
