P3
# saved image res/testHF.ppm
3 3
255
255
0
0
0
0
255
255
255
255
50
50
50
0
0
0
0
255
0
23
56
102
100
0
36
36
0
100
